<?xml version="1.0" encoding="UTF-8" standalone="no"?>
<svg
   xmlns:dc="http://purl.org/dc/elements/1.1/"
   xmlns:cc="http://creativecommons.org/ns#"
   xmlns:rdf="http://www.w3.org/1999/02/22-rdf-syntax-ns#"
   xmlns:svg="http://www.w3.org/2000/svg"
   xmlns="http://www.w3.org/2000/svg"
   viewBox="0 0 1333.3333 605.33331"
   height="605.33331"
   width="1333.3333"
   xml:space="preserve"
   id="svg2"
   version="1.1"><metadata
     id="metadata8"><rdf:RDF><cc:Work
         rdf:about=""><dc:format>image/svg+xml</dc:format><dc:type
           rdf:resource="http://purl.org/dc/dcmitype/StillImage" /></cc:Work></rdf:RDF></metadata><defs
     id="defs6"><clipPath
       id="clipPath18"
       clipPathUnits="userSpaceOnUse"><path
         id="path16"
         d="M 0,454 H 1000 V 0 H 0 Z" /></clipPath></defs><g
     transform="matrix(1.3333333,0,0,-1.3333333,0,605.33333)"
     id="g10"><g
       id="g12"><g
         clip-path="url(#clipPath18)"
         id="g14"><g
           transform="translate(29.4655,64.4748)"
           id="g20"><path
             id="path22"
             style="fill:#373535;fill-opacity:1;fill-rule:nonzero;stroke:none"
             d="M 0,0 H -10.956 V -46.886 H 0 c 13.205,0 23.985,10.151 23.985,23.443 C 23.985,-10.145 13.205,0 0,0 M 1.08,-53.353 H -18.143 V 6.466 H 1.08 c 16.977,0 30.179,-12.843 30.179,-29.909 0,-17.067 -13.202,-29.91 -30.179,-29.91" /></g><g
           transform="translate(110.2602,11.1222)"
           id="g24"><path
             id="path26"
             style="fill:#373535;fill-opacity:1;fill-rule:nonzero;stroke:none"
             d="M 0,0 V 59.819 H 35.21 V 53.353 H 7.187 V 33.505 H 34.133 V 27.038 H 7.187 V 6.466 H 35.21 V 0 Z" /></g><g
           transform="translate(217.1064,9.1483)"
           id="g28"><path
             id="path30"
             style="fill:#373535;fill-opacity:1;fill-rule:nonzero;stroke:none"
             d="m 0,0 -28.743,61.793 h 7.905 L 0,16.349 20.838,61.793 h 7.905 z" /></g><g
           transform="translate(290.7137,11.1222)"
           id="g32"><path
             id="path34"
             style="fill:#373535;fill-opacity:1;fill-rule:nonzero;stroke:none"
             d="M 0,0 V 59.819 H 35.209 V 53.353 H 7.187 V 33.505 H 34.133 V 27.038 H 7.187 V 6.466 H 35.209 V 0 Z" /></g><g
           transform="translate(377.8018,11.1222)"
           id="g36"><path
             id="path38"
             style="fill:#373535;fill-opacity:1;fill-rule:nonzero;stroke:none"
             d="M 0,0 V 59.819 H 7.187 V 6.466 H 35.21 V 0 Z" /></g><g
           transform="translate(485.0997,64.8337)"
           id="g40"><path
             id="path42"
             style="fill:#373535;fill-opacity:1;fill-rule:nonzero;stroke:none"
             d="m 0,0 c -13.023,0 -23.353,-10.414 -23.353,-23.802 0,-13.381 10.33,-23.802 23.353,-23.802 13.023,0 23.353,10.421 23.353,23.802 C 23.353,-10.414 13.023,0 0,0 m 0,-54.429 c -16.977,0 -30.627,13.65 -30.627,30.627 0,16.977 13.65,30.634 30.627,30.634 16.977,0 30.627,-13.657 30.627,-30.634 0,-16.977 -13.65,-30.627 -30.627,-30.627" /></g><g
           transform="translate(584.1208,64.4748)"
           id="g44"><path
             id="path46"
             style="fill:#373535;fill-opacity:1;fill-rule:nonzero;stroke:none"
             d="M 0,0 H -11.677 V -21.553 H 0 c 7.184,0 11.407,5.025 11.407,10.774 C 11.407,-5.031 7.184,0 0,0 m 0.09,-27.936 h -11.767 v -25.417 h -7.184 V 6.466 H 0.09 c 10.779,0 18.502,-7.363 18.502,-17.245 0,-9.876 -7.723,-17.157 -18.502,-17.157" /></g><g
           transform="translate(709.7445,11.1222)"
           id="g48"><path
             id="path50"
             style="fill:#373535;fill-opacity:1;fill-rule:nonzero;stroke:none"
             d="M 0,0 -13.561,41.855 -30.896,-1.974 -48.232,41.855 -61.793,0 h -7.549 L -48.86,61.799 -30.896,16.438 -12.933,61.799 7.549,0 Z" /></g><g
           transform="translate(764.2122,11.1222)"
           id="g52"><path
             id="path54"
             style="fill:#373535;fill-opacity:1;fill-rule:nonzero;stroke:none"
             d="M 0,0 V 59.819 H 35.209 V 53.353 H 7.184 V 33.505 H 34.126 V 27.038 H 7.184 V 6.466 H 35.209 V 0 Z" /></g><g
           transform="translate(858.4844,54.8681)"
           id="g56"><path
             id="path58"
             style="fill:#373535;fill-opacity:1;fill-rule:nonzero;stroke:none"
             d="m 0,0 v -43.746 h -7.184 v 61.799 l 41.676,-45.719 v 43.739 h 7.184 V -45.72 Z" /></g><g
           transform="translate(971.5214,64.4748)"
           id="g60"><path
             id="path62"
             style="fill:#373535;fill-opacity:1;fill-rule:nonzero;stroke:none"
             d="M 0,0 V -53.353 H -7.191 V 0 h -17.156 v 6.466 h 41.503 l 0,-6.466 z" /></g><g
           transform="translate(749.1035,157.4569)"
           id="g64"><path
             id="path66"
             style="fill:#96989b;fill-opacity:1;fill-rule:nonzero;stroke:none"
             d="m 0,0 -113.693,136.591 h 39.476 c 33.163,0 56.054,19.344 56.054,48.952 0,29.606 -22.891,48.949 -56.054,48.949 h -51.32 V 0 h -31.584 v 262.917 h 85.669 c 53.687,0 84.874,-33.952 84.874,-77.374 0,-40.663 -29.609,-72.639 -68.694,-72.639 L 39.867,0 Z" /></g><g
           transform="translate(833.5731,157.4569)"
           id="g68"><path
             id="path70"
             style="fill:#96989b;fill-opacity:1;fill-rule:nonzero;stroke:none"
             d="M 0,0 V 262.917 H 154.748 V 234.492 H 31.578 V 147.248 H 150.013 V 118.826 H 31.578 V 28.422 h 123.17 V 0 Z" /></g><g
           transform="translate(145.9407,154.2988)"
           id="g72"><path
             id="path74"
             style="fill:#96989b;fill-opacity:1;fill-rule:nonzero;stroke:none"
             d="m 0,0 c -74.612,0 -134.618,60.006 -134.618,134.615 0,75.006 60.795,134.618 134.618,134.618 33.16,0 62.371,-11.449 82.112,-28.027 L 63.163,217.519 C 41.449,233.308 23.684,239.23 0.395,239.23 -56.847,239.23 -102.642,193.435 -102.642,134.615 -102.642,75.796 -56.847,30 0.395,30 c 22.5,0 41.448,6.711 62.768,21.32 L 82.112,27.241 C 56.452,7.5 30.395,0 0,0" /></g><g
           transform="translate(515.7858,227.175)"
           id="g76"><path
             id="path78"
             style="fill:#606163;fill-opacity:1;fill-rule:nonzero;stroke:none"
             d="m 0,0 -0.302,-0.226 -0.227,-0.152 -27.956,-16.093 -78.502,-45.485 -78.88,45.409 -27.956,16.094 -0.378,0.227 -0.076,31.96 -0.075,91.725 93.16,53.946 13.902,8.009 14.205,-8.16 L -0.076,123.685 0,31.809 Z m 27.805,139.854 -135.17,77.823 -134.943,-78.125 0.151,-123.988 v -31.96 l 0.454,-0.226 27.955,-16.094 106.761,-61.502 106.458,61.653 27.88,16.169 0.605,0.303 z" /></g><g
           transform="translate(408.499,379.811)"
           id="g80"><path
             id="path82"
             style="fill:#606163;fill-opacity:1;fill-rule:nonzero;stroke:none"
             d="m 0,0 -78.662,-45.542 0.088,-72.276 v -18.63 l 0.264,-0.132 16.296,-9.382 62.235,-35.851 62.057,35.939 16.252,9.426 0.353,0.176 -0.088,90.907 z" /></g></g></g></g></svg>